{
    "asset" : {
        "generator" : "Khronos glTF Blender I/O v1.7.33",
        "version" : "2.0"
    },
    "scene" : 0,
    "scenes" : [
        {
            "name" : "Scene",
            "nodes" : [
                0
            ]
        }
    ],
    "nodes" : [
        {
            "mesh" : 0,
            "name" : "bunny"
        }
    ],
    "meshes" : [
        {
            "name" : "bunny.001",
            "primitives" : [
                {
                    "attributes" : {
                        "POSITION" : 0,
                        "NORMAL" : 1,
                        "TEXCOORD_0" : 2
                    },
                    "indices" : 3
                }
            ]
        }
    ],
    "accessors" : [
        {
            "bufferView" : 0,
            "componentType" : 5126,
            "count" : 35373,
            "max" : [
                5.015100002288818,
                9.898199081420898,
                3.887000322341919
            ],
            "min" : [
                -5.015100002288818,
                -0.04420016333460808,
                -3.8869986534118652
            ],
            "type" : "VEC3"
        },
        {
            "bufferView" : 1,
            "componentType" : 5126,
            "count" : 35373,
            "type" : "VEC3"
        },
        {
            "bufferView" : 2,
            "componentType" : 5126,
            "count" : 35373,
            "type" : "VEC2"
        },
        {
            "bufferView" : 3,
            "componentType" : 5123,
            "count" : 208998,
            "type" : "SCALAR"
        }
    ],
    "bufferViews" : [
        {
            "buffer" : 0,
            "byteLength" : 424476,
            "byteOffset" : 0
        },
        {
            "buffer" : 0,
            "byteLength" : 424476,
            "byteOffset" : 424476
        },
        {
            "buffer" : 0,
            "byteLength" : 282984,
            "byteOffset" : 848952
        },
        {
            "buffer" : 0,
            "byteLength" : 417996,
            "byteOffset" : 1131936
        }
    ],
    "buffers" : [
        {
            "byteLength" : 1549932,
            "uri" : "data:application/octet-stream;base64,"
        }
    ]
}
